<svg width="448" height="512" viewBox="0 0 448 512" fill="none" xmlns="http://www.w3.org/2000/svg">
<g clip-path="url(#clip0_609_601)">
<path d="M144 96V128H304V96C304 51.8 268.2 16 224 16C179.8 16 144 51.8 144 96ZM128 128V96C128 43 171 0 224 0C277 0 320 43 320 96V128H400C426.5 128 448 149.5 448 176V416C448 469 405 512 352 512H96C43 512 0 469 0 416V176C0 149.5 21.5 128 48 128H128ZM136 144H48C30.3 144 16 158.3 16 176V416C16 460.2 51.8 496 96 496H352C396.2 496 432 460.2 432 416V176C432 158.3 417.7 144 400 144H312H136ZM136 320C136 315.6 139.6 312 144 312H216V240C216 235.6 219.6 232 224 232C228.4 232 232 235.6 232 240V312H304C308.4 312 312 315.6 312 320C312 324.4 308.4 328 304 328H232V400C232 404.4 228.4 408 224 408C219.6 408 216 404.4 216 400V328H144C139.6 328 136 324.4 136 320Z" fill="black"/>
</g>
<defs>
<clipPath id="clip0_609_601">
<rect width="448" height="512" fill="white"/>
</clipPath>
</defs>
</svg>
