<svg width="58" height="109" viewBox="0 0 58 109" fill="none" xmlns="http://www.w3.org/2000/svg">
<path d="M37.5666 38.7992L29 47.4249L20.4334 38.7992C20.1814 38.5455 19.7742 38.5455 19.5222 38.7992C19.2702 39.0529 19.2702 39.463 19.5222 39.7167L28.5444 48.8011C28.6701 48.9277 28.835 48.9913 29 48.9913C29.165 48.9913 29.33 48.9277 29.4556 48.8011L38.4779 39.7167C38.7298 39.463 38.7298 39.0529 38.4779 38.7992C38.2259 38.5455 37.8186 38.5455 37.5666 38.7992Z" fill="white"/>
<path d="M37.5666 47.8836L29 56.5093L20.4334 47.8836C20.1814 47.6299 19.7742 47.6299 19.5222 47.8836C19.2702 48.1374 19.2702 48.5475 19.5222 48.8012L28.5444 57.8856C28.6701 58.0122 28.835 58.0757 29 58.0757C29.165 58.0757 29.33 58.0122 29.4556 57.8856L38.4779 48.8012C38.7298 48.5475 38.7298 48.1374 38.4779 47.8836C38.2259 47.6299 37.8186 47.6299 37.5666 47.8836Z" fill="white"/>
</svg>
